# xmcd
#
# Track frame offsets:
#	150
#	30567
#	50819
#	69531
#	89898
#	112375
#	131457
#	152539
#	177046
#	197278
#	217940
#	240697
#	260074
#	283866
#	311178
#	330455
#
# Disc length: 4666 seconds
#
# Revision: 1
# Processed by: cddbd v1.5PL3 Copyright (c) Steve Scherf et al.
# Submitted via: EasyCDDAExtractor 5.0.6
#
DISCID=f1123810
DTITLE=VARIOUS ARTIST-KING J - STAND UP IN IT 2-KING J
DYEAR=2004
DGENRE=Soul
TTITLE0=STAND UP IN IT-THEODIS EARLEY
TTITLE1=TWO STEP-MEL WAITERS
TTITLE2=SHAKE IT DOWN-T.K.
TTITLE3=GOOD STUFF-STAN MOSLEY
TTITLE4=IF YOU TAKE YOUR LOVE AWAY-JOHNNIE TAYLOR
TTITLE5=WHERE JODY STAY
TTITLE6=I LOVE BEING TIED DOWN-DAVID BRINSTON
TTITLE7=TEASE-TYRONE DAVIS
TTITLE8=HALF-OMAR CUNNINGHAM
TTITLE9=HELL AT THE HOUSE
TTITLE10=LOOKS LIKE IT'S OVER-DAVID BRINSTON
TTITLE11=SPARE TIME-WILLIE CLAYTON 
TTITLE12=LET ME MAKE IT RIGHT
TTITLE13=NO TIME LIKE THE PRESENT-CHUCK ROBERSON
TTITLE14=GIRLS NIGHT OUT-MEL WAITERS
TTITLE15=BONUS TRACK
EXTD=YEAR: 2004\n
EXTT0=
EXTT1=
EXTT2=
EXTT3=
EXTT4=
EXTT5=
EXTT6=
EXTT7=
EXTT8=
EXTT9=
EXTT10=
EXTT11=
EXTT12=
EXTT13=
EXTT14=
EXTT15=
PLAYORDER=
